<?xml version="1.0" standalone="no"?>
<!DOCTYPE svg PUBLIC "-//W3C//DTD SVG 20010904//EN"
 "http://www.w3.org/TR/2001/REC-SVG-20010904/DTD/svg10.dtd">
<svg version="1.0" xmlns="http://www.w3.org/2000/svg"
 width="1024.000000pt" height="1024.000000pt" viewBox="0 0 1024.000000 1024.000000"
 preserveAspectRatio="xMidYMid meet">
<metadata>
Created by potrace 1.14, written by Peter Selinger 2001-2017
</metadata>
<g transform="translate(0.000000,1024.000000) scale(0.100000,-0.100000)"
fill="#000000" stroke="none">
<path d="M4273 8120 c-36 -15 -55 -55 -65 -142 -18 -155 -62 -202 -203 -215
-76 -7 -119 -34 -128 -80 -12 -65 48 -113 143 -113 114 0 172 -66 189 -212 11
-94 22 -121 58 -137 33 -15 60 -14 87 4 31 20 43 54 51 139 6 76 29 127 72
168 23 22 46 30 123 42 108 17 140 40 140 100 0 61 -25 78 -135 92 -64 8 -107
19 -124 31 -41 30 -68 94 -76 180 -8 90 -23 124 -60 141 -30 14 -42 14 -72 2z"/>
<path d="M6535 7882 c-59 -38 -267 -154 -855 -478 -683 -376 -917 -504 -1075
-589 -38 -20 -104 -55 -145 -78 -41 -22 -122 -66 -180 -97 -58 -32 -233 -126
-390 -210 -300 -160 -366 -196 -810 -438 -416 -226 -623 -339 -750 -408 -182
-99 -187 -103 -195 -166 -3 -29 -5 -536 -3 -1126 3 -940 5 -1074 18 -1082 26
-16 56 -11 115 20 99 52 234 36 309 -36 86 -83 116 -176 116 -362 0 -118 1
-124 25 -148 33 -33 43 -29 180 59 111 72 203 116 240 117 40 0 96 -22 130
-51 53 -47 74 -90 84 -169 15 -119 53 -137 157 -74 32 20 118 69 189 109 72
39 207 115 300 167 94 52 231 129 305 170 74 42 257 144 405 228 149 84 299
170 335 190 334 189 853 486 1240 710 107 62 260 148 340 192 80 44 190 106
245 137 55 32 147 84 205 116 58 32 170 96 250 141 80 45 255 143 389 218 135
75 250 145 257 154 11 13 13 132 14 559 0 298 -3 549 -6 558 -11 29 -48 35
-109 20 -74 -20 -111 -19 -184 4 -151 47 -277 206 -332 416 -19 73 -20 98 -15
300 3 121 7 349 7 508 2 263 0 289 -16 307 -10 11 -28 20 -39 20 -12 0 -71
-29 -131 -65 -171 -102 -230 -128 -294 -133 -69 -5 -111 20 -154 90 -24 38
-30 61 -34 130 -8 121 -35 135 -138 70z m-13 -340 c107 -189 292 -237 514
-132 l82 38 4 -152 c3 -83 0 -191 -6 -241 -19 -153 -13 -346 12 -449 79 -317
306 -569 550 -609 37 -6 70 -16 74 -22 4 -5 8 -67 8 -138 l0 -127 -51 -28
c-75 -40 -224 -123 -504 -278 -137 -76 -279 -154 -315 -172 -36 -19 -94 -51
-130 -72 -36 -20 -90 -51 -120 -68 l-55 -31 3 173 c6 276 -38 477 -151 706
-156 313 -383 544 -675 684 l-81 40 32 20 c43 26 370 211 537 303 165 91 200
122 200 176 0 31 -7 46 -34 73 -47 47 -99 47 -179 -1 -32 -19 -59 -35 -61 -35
-2 0 -47 -25 -382 -213 -94 -52 -211 -117 -260 -143 -49 -26 -102 -55 -118
-65 -21 -13 -36 -15 -58 -8 -16 4 -85 13 -151 19 -67 6 -123 13 -125 14 -6 6
1387 783 1408 785 3 1 17 -20 32 -47z m-1238 -976 c535 -108 949 -511 1062
-1036 22 -101 29 -333 15 -445 -25 -189 -84 -372 -171 -530 -184 -334 -488
-552 -865 -621 -98 -18 -312 -20 -420 -4 -438 64 -820 340 -1018 735 -151 302
-174 686 -61 1025 103 308 346 605 614 748 137 74 283 121 455 146 61 9 312
-3 389 -18z m-1493 -453 c-5 -10 -34 -59 -63 -110 -30 -50 -62 -111 -71 -135
-13 -34 -26 -49 -55 -62 -20 -10 -104 -55 -187 -101 -552 -305 -832 -462 -977
-546 -36 -22 -69 -39 -72 -39 -8 0 -7 145 0 192 6 34 12 39 123 99 64 34 186
101 271 149 294 164 1032 569 1038 570 1 0 -2 -8 -7 -17z m-235 -605 c-32
-122 -31 -402 3 -572 61 -300 210 -576 430 -796 116 -116 222 -195 354 -264
l85 -45 -106 -64 c-59 -35 -195 -112 -302 -172 -530 -293 -520 -286 -520 -362
0 -60 40 -103 97 -103 39 0 47 4 368 185 77 43 199 111 270 150 72 40 209 116
305 170 l175 98 43 -12 c23 -6 96 -16 162 -23 l120 -12 -68 -36 c-37 -20 -133
-76 -214 -123 -81 -48 -149 -87 -151 -87 -2 0 -57 -31 -123 -68 -65 -37 -160
-90 -209 -117 -50 -26 -142 -77 -205 -113 -63 -35 -169 -95 -235 -132 -66 -36
-162 -90 -213 -118 -50 -29 -95 -52 -100 -52 -4 0 -13 15 -21 33 -21 46 -132
152 -185 175 -119 53 -237 49 -353 -13 l-63 -33 -1 42 c-1 22 0 49 1 60 1 10
-2 16 -7 13 -5 -3 -10 12 -10 34 -1 22 -8 52 -15 67 -12 23 -11 36 2 89 9 34
19 65 23 69 4 4 7 18 7 31 0 13 4 22 9 18 6 -3 13 15 17 40 3 25 10 48 15 51
5 3 9 11 9 17 0 7 -5 4 -11 -7 -20 -33 -29 3 -29 120 0 225 -74 473 -211 712
-69 120 -142 212 -249 316 l-90 88 6 51 c7 62 1 57 193 163 166 91 515 287
796 445 105 59 194 108 199 108 4 1 6 -9 2 -21z m4200 -89 c-3 -17 -6 -68 -6
-113 l-1 -81 -172 -96 c-214 -121 -552 -309 -717 -402 -69 -38 -161 -90 -205
-115 -141 -80 -246 -134 -251 -129 -3 3 13 42 36 86 22 45 45 105 50 133 7 33
18 57 32 67 12 9 157 91 322 183 166 91 351 194 411 228 61 33 193 108 295
165 102 57 191 104 199 105 10 0 12 -8 7 -31z m-5335 -1045 c203 -275 306
-637 258 -911 l-11 -63 -25 20 c-40 32 -133 61 -210 67 l-72 6 -1 468 c0 302
3 469 10 469 5 0 28 -25 51 -56z m499 -896 c0 -16 -3 -19 -11 -11 -6 6 -8 16
-5 22 11 17 16 13 16 -11z"/>
<path d="M6585 6623 c-39 -10 -102 -54 -134 -93 -43 -54 -62 -112 -63 -191 -1
-108 59 -215 146 -262 37 -20 56 -22 184 -22 l144 0 24 -28 c30 -35 31 -85 3
-121 -26 -32 -41 -33 -75 -1 -33 30 -77 32 -121 5 -44 -26 -56 -54 -51 -112
15 -147 220 -185 366 -69 133 108 144 351 20 467 -76 72 -150 92 -277 75 -99
-13 -126 -5 -147 46 -12 28 -13 42 -5 60 16 35 40 39 82 15 45 -26 79 -28 119
-7 90 46 74 167 -29 222 -43 22 -129 30 -186 16z"/>
<path d="M4855 6316 c-75 -28 -86 -51 -240 -502 l-38 -111 -265 -73 c-154 -42
-281 -82 -303 -95 -66 -42 -98 -123 -78 -197 14 -54 56 -98 259 -271 96 -82
190 -163 208 -179 l32 -29 -6 -242 c-7 -263 -4 -292 43 -355 39 -51 80 -72
143 -72 67 0 113 23 265 130 58 41 140 99 181 127 l74 53 103 -36 c392 -138
437 -149 504 -123 40 15 73 48 94 94 32 69 31 76 -80 479 l-41 149 22 31 c12
17 61 83 108 146 149 197 197 264 214 297 31 61 14 157 -37 211 -51 55 -60 57
-371 62 l-290 5 -90 135 c-50 75 -119 179 -153 232 -38 58 -76 104 -97 117
-45 28 -111 35 -161 17z m157 -371 c118 -186 213 -323 230 -334 11 -7 117 -11
297 -11 154 -1 282 -4 285 -8 2 -4 -59 -90 -135 -192 -77 -102 -156 -209 -175
-239 l-37 -53 12 -57 c7 -31 28 -110 48 -176 36 -121 83 -293 83 -301 0 -11
-41 2 -258 81 -128 47 -242 85 -253 85 -20 0 -121 -67 -354 -233 l-110 -78 -5
281 -5 282 -102 81 c-241 194 -353 291 -346 298 4 4 85 28 178 54 250 69 369
105 377 113 3 4 40 106 82 227 89 261 105 300 116 289 4 -5 37 -54 72 -109z"/>
<path d="M3204 5070 c-33 -13 -64 -59 -64 -94 0 -46 576 -1155 613 -1181 38
-27 85 -19 124 20 32 32 35 40 30 75 -3 23 -55 133 -129 272 -68 128 -164 312
-213 408 -248 491 -243 481 -281 498 -29 14 -50 14 -80 2z"/>
<path d="M2885 4888 c-52 -28 -70 -94 -42 -148 7 -14 45 -86 84 -160 39 -74
101 -193 138 -265 250 -484 360 -687 378 -700 60 -42 156 8 157 82 0 23 -67
161 -224 465 -392 759 -358 701 -413 724 -39 17 -52 17 -78 2z"/>
<path d="M2923 3600 c0 -25 2 -35 4 -22 2 12 2 32 0 45 -2 12 -4 2 -4 -23z"/>
<path d="M2890 3291 c0 -6 4 -13 10 -16 6 -3 7 1 4 9 -7 18 -14 21 -14 7z"/>
<path d="M3052 7397 c-39 -22 -53 -54 -63 -147 -10 -103 -33 -157 -82 -194
-35 -27 -100 -45 -160 -46 -53 0 -96 -25 -113 -66 -28 -68 27 -134 113 -134
57 -1 121 -18 153 -41 40 -30 78 -105 85 -169 11 -104 16 -119 41 -150 20 -23
34 -30 63 -30 63 0 101 50 101 134 0 102 62 212 133 235 18 6 63 15 101 20
104 15 153 63 130 127 -16 45 -54 66 -140 74 -95 10 -121 19 -156 56 -40 42
-60 99 -66 186 -5 86 -27 133 -68 148 -32 13 -44 12 -72 -3z m106 -452 c15
-14 33 -25 40 -25 19 0 15 -6 -38 -56 -27 -25 -52 -55 -55 -65 -9 -27 -18 -23
-35 14 -8 17 -34 46 -57 64 l-43 32 36 22 c19 12 47 39 61 60 l26 39 19 -31
c10 -17 31 -41 46 -54z"/>
<path d="M7509 4441 c-31 -31 -36 -59 -17 -94 25 -48 66 -59 117 -32 49 25 57
90 16 130 -34 35 -78 33 -116 -4z"/>
<path d="M7053 4170 c-37 -15 -55 -56 -65 -147 -11 -105 -38 -166 -87 -198
-40 -27 -106 -44 -164 -45 -80 0 -128 -51 -111 -117 13 -52 49 -74 136 -83 78
-7 120 -24 155 -62 35 -37 61 -108 69 -183 8 -80 24 -118 60 -141 21 -14 31
-15 64 -5 53 16 69 43 80 139 20 178 79 239 253 257 38 4 66 14 83 28 32 28
46 77 30 107 -22 44 -56 60 -153 69 -100 9 -127 21 -166 73 -28 38 -35 63 -46
178 -7 66 -13 87 -32 106 -27 27 -74 38 -106 24z m52 -389 c6 -21 73 -85 96
-93 9 -3 -3 -20 -38 -52 -29 -26 -55 -56 -58 -66 -9 -28 -18 -25 -39 14 -10
18 -35 46 -57 62 -37 28 -48 44 -30 44 15 0 101 81 101 96 0 21 18 17 25 -5z"/>
<path d="M6194 3850 c-55 -21 -70 -94 -29 -135 63 -64 165 8 130 92 -7 17 -17
33 -22 35 -20 12 -60 16 -79 8z"/>
<path d="M5343 2930 c-36 -15 -50 -50 -62 -148 -18 -161 -59 -209 -189 -222
-84 -9 -135 -28 -146 -55 -14 -37 -6 -77 22 -105 24 -24 39 -29 104 -35 46 -4
89 -15 107 -26 47 -28 89 -94 95 -147 17 -145 25 -176 48 -194 35 -27 85 -23
117 10 24 24 29 39 39 125 13 113 42 176 94 203 17 9 65 21 106 26 95 11 127
28 142 72 9 28 8 40 -5 65 -21 41 -37 48 -135 56 -101 9 -131 23 -166 75 -22
32 -27 56 -34 140 -9 108 -23 144 -66 160 -30 12 -42 12 -71 0z"/>
<path d="M6354 2816 c-21 -17 -28 -33 -28 -59 0 -78 83 -115 138 -61 77 78
-27 192 -110 120z"/>
<path d="M7107 2788 c-63 -49 -22 -158 59 -158 9 0 29 13 45 29 57 57 26 141
-52 141 -19 0 -43 -6 -52 -12z"/>
<path d="M4250 2673 c-23 -8 -50 -46 -50 -71 0 -30 25 -78 45 -86 62 -23 125
18 125 81 0 60 -59 98 -120 76z"/>
</g>
</svg>
